<svg width="32" height="33" viewBox="0 0 32 33" fill="none" xmlns="http://www.w3.org/2000/svg">
<path opacity="0.3" fill-rule="evenodd" clip-rule="evenodd" d="M25.3333 15.1667C26.006 15.1665 26.654 15.4205 27.1473 15.878C27.6406 16.3355 27.9428 16.9625 27.9933 17.6333L27.9999 17.8333V25.8333C28.0001 26.5061 27.746 27.1541 27.2886 27.6474C26.8311 28.1407 26.2041 28.4429 25.5333 28.4933L25.3333 28.5H19.9999C19.3271 28.5002 18.6792 28.2461 18.1859 27.7887C17.6925 27.3312 17.3904 26.7042 17.3399 26.0333L17.3333 25.8333V17.8333C17.333 17.1606 17.5871 16.5126 18.0446 16.0193C18.502 15.526 19.129 15.2238 19.7999 15.1733L19.9999 15.1667H25.3333ZM25.3333 4.5C26.0405 4.5 26.7188 4.78095 27.2189 5.28105C27.719 5.78115 27.9999 6.45942 27.9999 7.16667V9.83333C27.9999 10.5406 27.719 11.2189 27.2189 11.719C26.7188 12.219 26.0405 12.5 25.3333 12.5H19.9999C19.2927 12.5 18.6144 12.219 18.1143 11.719C17.6142 11.2189 17.3333 10.5406 17.3333 9.83333V7.16667C17.3333 6.45942 17.6142 5.78115 18.1143 5.28105C18.6144 4.78095 19.2927 4.5 19.9999 4.5H25.3333Z" fill="#AF2F33"/>
<path fill-rule="evenodd" clip-rule="evenodd" d="M12 4.5C12.7072 4.5 13.3855 4.78095 13.8856 5.28105C14.3857 5.78115 14.6667 6.45942 14.6667 7.16667V15.1667C14.6667 15.8739 14.3857 16.5522 13.8856 17.0523C13.3855 17.5524 12.7072 17.8333 12 17.8333H6.66667C5.95942 17.8333 5.28115 17.5524 4.78105 17.0523C4.28095 16.5522 4 15.8739 4 15.1667V7.16667C4 6.45942 4.28095 5.78115 4.78105 5.28105C5.28115 4.78095 5.95942 4.5 6.66667 4.5H12Z" fill="#AF2F33"/>
<path opacity="0.3" fill-rule="evenodd" clip-rule="evenodd" d="M12 20.5C12.7072 20.5 13.3855 20.781 13.8856 21.281C14.3857 21.7811 14.6667 22.4594 14.6667 23.1667V25.8333C14.6667 26.5406 14.3857 27.2189 13.8856 27.719C13.3855 28.219 12.7072 28.5 12 28.5H6.66667C5.95942 28.5 5.28115 28.219 4.78105 27.719C4.28095 27.2189 4 26.5406 4 25.8333V23.1667C4 22.4594 4.28095 21.7811 4.78105 21.281C5.28115 20.781 5.95942 20.5 6.66667 20.5H12Z" fill="#AF2F33"/>
</svg>
