<svg width="31" height="31" viewBox="0 0 31 31" fill="none" xmlns="http://www.w3.org/2000/svg">
<path opacity="0.3" d="M26.8215 10.3101L26.8499 10.5555L26.8589 10.8061V20.1939C26.8588 20.7217 26.7293 21.2413 26.4819 21.7074C26.2344 22.1736 25.8765 22.5719 25.4394 22.8677L25.2456 22.9904L17.1146 27.6843L16.9544 27.7708L16.7917 27.8483V16.2363L26.8215 10.3101Z" fill="#AF2F33"/>
<path d="M17.1146 3.3157L25.2443 8.00962C25.3089 8.04837 25.3735 8.08712 25.4355 8.12845L15.5 13.9991L5.5645 8.12845C5.62698 8.08687 5.69073 8.04724 5.75567 8.00962L13.8854 3.3157C14.3762 3.03203 14.9331 2.88268 15.5 2.88268C16.0669 2.88268 16.6238 3.03203 17.1146 3.3157Z" fill="#AF2F33"/>
<path opacity="0.3" d="M4.17854 10.3101L14.2083 16.2375V27.847C14.0975 27.7993 13.9897 27.7449 13.8854 27.6843L5.75567 22.9904C5.26496 22.7068 4.85747 22.2991 4.57408 21.8083C4.29068 21.3174 4.14136 20.7607 4.14108 20.1939V10.8061C4.14108 10.6382 4.154 10.4728 4.17983 10.3101H4.17854Z" fill="#AF2F33"/>
</svg>
